# xmcd CD database file generated by Grip 3.2.0
# 
# Track frame offsets:
#       150
#       28252
#       45156
#       64439
#       82148
#       94231
#       110111
#       126319
#       148833
#       165004
#       179036
#       196505
#       219874
#       247287
#       274058
# 
# Disc length: 4004 seconds
# 
# Revision: 2
# Processed by: cddbd v1.5.2PL0 Copyright (c) Steve Scherf et al.
# Submitted via: Grip 3.2.0
# 
DISCID=e10fa20f
DTITLE=Various Artist - New York City Salsa Vol. 2
DYEAR=2006
DGENRE=Salsa
TTITLE0=Richie Ray y Bobby Cruz - Aguzate
TTITLE1=Cabrerita - El Remolon
TTITLE2=Javier Vazquez - Don Anastacio
TTITLE3=Larry Harlow with Ismael Miranda - Se Casa la Rumba
TTITLE4=Cheo Feliciano - Casera Ten Cuidao
TTITLE5=Gilberto Cruz - Resignacion
TTITLE6=Alfredo Vargas y su Orchesta - Arenque
TTITLE7=Celia Cruz y Johnny Pacheco - Tres Dias De Carnaval
TTITLE8=Ismael Rivera con Cortijo - Fuerz' E Cara
TTITLE9=Justo Betancourt - Catano
TTITLE10=Monguito Santamaria - Nosotros
TTITLE11=Lebron Brothers - Tengo Testigo
TTITLE12=Johnny Colon - Dejame en Paz
TTITLE13=Kako y Azuquita - La Fiera
TTITLE14=Fania All Stars - Ublabadu
EXTD=YEAR: 2006
EXTT0=
EXTT1=
EXTT2=
EXTT3=
EXTT4=
EXTT5=
EXTT6=
EXTT7=
EXTT8=
EXTT9=
EXTT10=
EXTT11=
EXTT12=
EXTT13=
EXTT14=
PLAYORDER=
